<mxfile host="65bd71144e" pages="1">
    <diagram id="oxqNLMTQGE4kuDsFMKYy" name="Page-1">
        <mxGraphModel dx="1860" dy="2122" grid="1" gridSize="10" guides="1" tooltips="1" connect="1" arrows="1" fold="1" page="1" pageScale="1" pageWidth="827" pageHeight="1169" math="0" shadow="0">
            <root>
                <mxCell id="0"/>
                <mxCell id="1" parent="0"/>
                <mxCell id="40" value="" style="rounded=1;whiteSpace=wrap;html=1;strokeColor=none;" vertex="1" parent="1">
                    <mxGeometry x="120" y="-160" width="960" height="800" as="geometry"/>
                </mxCell>
                <mxCell id="37" value="&lt;b&gt;&amp;nbsp; Cryptellation System&lt;br&gt;&amp;nbsp; &lt;/b&gt;[Software System]" style="rounded=0;whiteSpace=wrap;html=1;fillColor=none;dashed=1;align=left;verticalAlign=bottom;gradientColor=none;strokeColor=#B3B3B3;strokeWidth=2;" parent="1" vertex="1">
                    <mxGeometry x="160" width="880" height="420" as="geometry"/>
                </mxCell>
                <mxCell id="33" value="" style="endArrow=classic;html=1;edgeStyle=orthogonalEdgeStyle;dashed=1;exitX=0.25;exitY=1;exitDx=0;exitDy=0;" parent="1" source="14" edge="1">
                    <mxGeometry width="50" height="50" relative="1" as="geometry">
                        <mxPoint x="840" y="190" as="sourcePoint"/>
                        <mxPoint x="300" y="280" as="targetPoint"/>
                        <Array as="points">
                            <mxPoint x="490" y="161"/>
                            <mxPoint x="300" y="161"/>
                        </Array>
                    </mxGeometry>
                </mxCell>
                <mxCell id="4" value="&lt;b&gt;Candlesticks&lt;/b&gt;&lt;br&gt;[Service]&lt;br&gt;Provides candlesticks to services and users." style="rounded=1;whiteSpace=wrap;html=1;fillColor=#dae8fc;strokeColor=#6c8ebf;" parent="1" vertex="1">
                    <mxGeometry x="200" y="280" width="200" height="80" as="geometry"/>
                </mxCell>
                <mxCell id="5" value="&lt;b&gt;Exchanges&lt;/b&gt;&lt;br&gt;[Service]&lt;br&gt;Provides exchanges information to services and users." style="rounded=1;whiteSpace=wrap;html=1;fillColor=#dae8fc;strokeColor=#6c8ebf;" parent="1" vertex="1">
                    <mxGeometry x="440" y="280" width="200" height="80" as="geometry"/>
                </mxCell>
                <mxCell id="7" value="Get candlesticks&lt;br style=&quot;font-size: 11px;&quot;&gt;[JSON/HTTPS]" style="endArrow=classic;html=1;exitX=0.5;exitY=1;exitDx=0;exitDy=0;entryX=0.5;entryY=0;entryDx=0;entryDy=0;edgeStyle=orthogonalEdgeStyle;dashed=1;fontSize=11;" parent="1" source="4" target="8" edge="1">
                    <mxGeometry x="0.2143" width="50" height="50" relative="1" as="geometry">
                        <mxPoint x="123" y="650" as="sourcePoint"/>
                        <mxPoint x="198" y="516" as="targetPoint"/>
                        <Array as="points">
                            <mxPoint x="300" y="480"/>
                            <mxPoint x="420" y="480"/>
                        </Array>
                        <mxPoint as="offset"/>
                    </mxGeometry>
                </mxCell>
                <mxCell id="8" value="&lt;b&gt;Exchanges&lt;/b&gt;&lt;br&gt;[Internet Service]&lt;br&gt;API that exchanges provides to get informations." style="rounded=1;whiteSpace=wrap;html=1;fillColor=#f5f5f5;strokeColor=#666666;fontColor=#333333;" parent="1" vertex="1">
                    <mxGeometry x="320" y="520" width="200" height="80" as="geometry"/>
                </mxCell>
                <mxCell id="9" value="" style="endArrow=classic;html=1;exitX=0.5;exitY=1;exitDx=0;exitDy=0;entryX=0.5;entryY=0;entryDx=0;entryDy=0;edgeStyle=orthogonalEdgeStyle;dashed=1;" parent="1" source="5" target="8" edge="1">
                    <mxGeometry width="50" height="50" relative="1" as="geometry">
                        <mxPoint x="303" y="420" as="sourcePoint"/>
                        <mxPoint x="303" y="520" as="targetPoint"/>
                        <Array as="points">
                            <mxPoint x="540" y="480"/>
                            <mxPoint x="420" y="480"/>
                        </Array>
                    </mxGeometry>
                </mxCell>
                <mxCell id="10" value="Get&amp;nbsp;information&lt;br style=&quot;font-size: 11px;&quot;&gt;[JSON/HTTPS]" style="text;html=1;resizable=0;points=[];align=center;verticalAlign=middle;labelBackgroundColor=#ffffff;fontSize=11;" parent="9" vertex="1" connectable="0">
                    <mxGeometry x="0.2588" y="-1" relative="1" as="geometry">
                        <mxPoint x="6" y="1" as="offset"/>
                    </mxGeometry>
                </mxCell>
                <mxCell id="11" value="&lt;b&gt;Ticks&lt;/b&gt;&lt;br&gt;[Service]&lt;br&gt;Provides ticks in real time to&lt;br&gt;services and users." style="rounded=1;whiteSpace=wrap;html=1;fillColor=#dae8fc;strokeColor=#6c8ebf;" parent="1" vertex="1">
                    <mxGeometry x="680" y="280" width="200" height="80" as="geometry"/>
                </mxCell>
                <mxCell id="12" value="" style="endArrow=classic;html=1;exitX=1;exitY=0.5;exitDx=0;exitDy=0;entryX=0.5;entryY=1;entryDx=0;entryDy=0;edgeStyle=orthogonalEdgeStyle;dashed=1;" parent="1" source="8" target="11" edge="1">
                    <mxGeometry width="50" height="50" relative="1" as="geometry">
                        <mxPoint x="543" y="380" as="sourcePoint"/>
                        <mxPoint x="423" y="450" as="targetPoint"/>
                    </mxGeometry>
                </mxCell>
                <mxCell id="13" value="Deliver new ticks&lt;br style=&quot;font-size: 11px;&quot;&gt;[WebSocket]" style="text;html=1;resizable=0;points=[];align=center;verticalAlign=middle;labelBackgroundColor=#ffffff;fontSize=11;" parent="12" vertex="1" connectable="0">
                    <mxGeometry x="0.2588" y="-1" relative="1" as="geometry">
                        <mxPoint x="-101" y="4" as="offset"/>
                    </mxGeometry>
                </mxCell>
                <mxCell id="14" value="&lt;b&gt;User&lt;/b&gt;&lt;br&gt;[Application]&lt;br&gt;Application that a user will run to execute its strategies." style="rounded=1;whiteSpace=wrap;html=1;fillColor=#fff2cc;strokeColor=#d6b656;" parent="1" vertex="1">
                    <mxGeometry x="440" y="-120" width="200" height="80" as="geometry"/>
                </mxCell>
                <mxCell id="15" value="&lt;b&gt;Backtests&lt;/b&gt;&lt;br&gt;[Service]&lt;br&gt;Provide an entire environment for users to execute backtests." style="rounded=1;whiteSpace=wrap;html=1;fillColor=#dae8fc;strokeColor=#6c8ebf;" parent="1" vertex="1">
                    <mxGeometry x="200" y="40" width="200" height="80" as="geometry"/>
                </mxCell>
                <mxCell id="16" value="Get candlesticks&lt;br&gt;[gRPC]" style="endArrow=classic;html=1;exitX=0.5;exitY=1;exitDx=0;exitDy=0;entryX=0.5;entryY=0;entryDx=0;entryDy=0;edgeStyle=orthogonalEdgeStyle;dashed=1;labelBackgroundColor=default;" parent="1" source="15" target="4" edge="1">
                    <mxGeometry x="0.2542" width="50" height="50" relative="1" as="geometry">
                        <mxPoint x="303" y="380" as="sourcePoint"/>
                        <mxPoint x="423" y="450" as="targetPoint"/>
                        <mxPoint as="offset"/>
                    </mxGeometry>
                </mxCell>
                <mxCell id="17" value="&lt;b&gt;Forward Tests&lt;/b&gt;&lt;br&gt;[Service]&lt;br&gt;Provide an entire environment for users to execute forward tests." style="rounded=1;whiteSpace=wrap;html=1;fillColor=#dae8fc;strokeColor=#6c8ebf;" parent="1" vertex="1">
                    <mxGeometry x="800" y="40" width="200" height="80" as="geometry"/>
                </mxCell>
                <mxCell id="22" value="" style="endArrow=classic;html=1;exitX=0.5;exitY=0;exitDx=0;exitDy=0;entryX=0.5;entryY=1;entryDx=0;entryDy=0;edgeStyle=orthogonalEdgeStyle;dashed=1;shadow=0;" parent="1" source="11" target="17" edge="1">
                    <mxGeometry width="50" height="50" relative="1" as="geometry">
                        <mxPoint x="533.1764705882354" y="499.88235294117646" as="sourcePoint"/>
                        <mxPoint x="800.2352941176473" y="379.88235294117646" as="targetPoint"/>
                    </mxGeometry>
                </mxCell>
                <mxCell id="25" value="" style="endArrow=classic;html=1;exitX=0;exitY=0.25;exitDx=0;exitDy=0;entryX=0.25;entryY=0;entryDx=0;entryDy=0;edgeStyle=orthogonalEdgeStyle;dashed=1;" parent="1" source="14" target="15" edge="1">
                    <mxGeometry width="50" height="50" relative="1" as="geometry">
                        <mxPoint x="890.2352941176473" y="329.88235294117646" as="sourcePoint"/>
                        <mxPoint x="1099.6470588235293" y="269.88235294117646" as="targetPoint"/>
                        <Array as="points">
                            <mxPoint x="250" y="-100"/>
                        </Array>
                    </mxGeometry>
                </mxCell>
                <mxCell id="26" value="Send orders&lt;br style=&quot;font-size: 11px;&quot;&gt;[gRPC]" style="text;html=1;resizable=0;points=[];align=center;verticalAlign=middle;labelBackgroundColor=#ffffff;fontSize=11;" parent="25" vertex="1" connectable="0">
                    <mxGeometry x="0.2588" y="-1" relative="1" as="geometry">
                        <mxPoint x="71" y="-5" as="offset"/>
                    </mxGeometry>
                </mxCell>
                <mxCell id="27" value="Send orders&lt;br&gt;[gRPC]" style="endArrow=classic;html=1;exitX=1;exitY=0.5;exitDx=0;exitDy=0;edgeStyle=orthogonalEdgeStyle;dashed=1;entryX=0.5;entryY=0;entryDx=0;entryDy=0;" parent="1" source="14" target="17" edge="1">
                    <mxGeometry width="50" height="50" relative="1" as="geometry">
                        <mxPoint x="1150.2352941176473" y="189.88235294117646" as="sourcePoint"/>
                        <mxPoint x="310.2352941176471" y="129.88235294117646" as="targetPoint"/>
                        <Array as="points">
                            <mxPoint x="900" y="-80"/>
                        </Array>
                    </mxGeometry>
                </mxCell>
                <mxCell id="34" value="Get exchange info&lt;br&gt;[gRPC]" style="endArrow=classic;html=1;edgeStyle=orthogonalEdgeStyle;dashed=1;entryX=0.5;entryY=0;entryDx=0;entryDy=0;exitX=0.25;exitY=1;exitDx=0;exitDy=0;" parent="1" source="14" target="5" edge="1">
                    <mxGeometry x="0.6571" width="50" height="50" relative="1" as="geometry">
                        <mxPoint x="870" y="210" as="sourcePoint"/>
                        <mxPoint x="310.3333333333335" y="289.66666666666674" as="targetPoint"/>
                        <Array as="points">
                            <mxPoint x="490" y="161"/>
                            <mxPoint x="540" y="161"/>
                        </Array>
                        <mxPoint as="offset"/>
                    </mxGeometry>
                </mxCell>
                <mxCell id="35" value="" style="endArrow=classic;html=1;exitX=0.5;exitY=0;exitDx=0;exitDy=0;entryX=0.75;entryY=1;entryDx=0;entryDy=0;edgeStyle=orthogonalEdgeStyle;dashed=1;" parent="1" source="11" target="14" edge="1">
                    <mxGeometry width="50" height="50" relative="1" as="geometry">
                        <mxPoint x="790.3333333333335" y="289.66666666666674" as="sourcePoint"/>
                        <mxPoint x="540.3333333333335" y="129.66666666666674" as="targetPoint"/>
                    </mxGeometry>
                </mxCell>
                <mxCell id="36" value="Deliver new ticks&lt;br style=&quot;font-size: 11px;&quot;&gt;[NATS]" style="text;html=1;resizable=0;points=[];align=center;verticalAlign=middle;labelBackgroundColor=#ffffff;fontSize=11;" parent="35" vertex="1" connectable="0">
                    <mxGeometry x="0.2588" y="-1" relative="1" as="geometry">
                        <mxPoint x="158.5" y="110.5" as="offset"/>
                    </mxGeometry>
                </mxCell>
                <mxCell id="38" value="" style="endArrow=classic;html=1;exitX=0.5;exitY=0;exitDx=0;exitDy=0;entryX=0;entryY=0.75;entryDx=0;entryDy=0;edgeStyle=orthogonalEdgeStyle;dashed=1;" parent="1" source="15" target="14" edge="1">
                    <mxGeometry width="50" height="50" relative="1" as="geometry">
                        <mxPoint x="450" y="-70" as="sourcePoint"/>
                        <mxPoint x="260" y="50" as="targetPoint"/>
                        <Array as="points">
                            <mxPoint x="300" y="-60"/>
                        </Array>
                    </mxGeometry>
                </mxCell>
                <mxCell id="39" value="Deliver simulated ticks&lt;br style=&quot;font-size: 11px;&quot;&gt;[NATS]" style="text;html=1;resizable=0;points=[];align=center;verticalAlign=middle;labelBackgroundColor=#ffffff;fontSize=11;" parent="38" vertex="1" connectable="0">
                    <mxGeometry x="0.2588" y="-1" relative="1" as="geometry">
                        <mxPoint x="-21" y="29" as="offset"/>
                    </mxGeometry>
                </mxCell>
            </root>
        </mxGraphModel>
    </diagram>
</mxfile>
